# xmcd CD database file
#
# Track frame offsets:
#	150
#	13115
#	25156
#	38021
#	49544
#	61819
#	75923
#	88146
#	101349
#	113320
#	123632
#	134975
#	146758
#	158698
#	171082
#	182341
#	192372
#	203848
#	215874
#
# Disc length: 3056 seconds
#
# Revision: 0
# Processed by: cddbd v1.4PL0 Copyright (c) Steve Scherf et al.
# Submitted via: CDex 1.50Beta7
#
DISCID=fe0bee13
DTITLE=Slim Gaillard and Slam Stewart - Complete Columbia Master Takes Disc 1
DYEAR=1900
DGENRE=Jazz
TTITLE0=The Flat Foot Floogie
TTITLE1=Chinatown My Chinatown
TTITLE2=That's What You Call Romance
TTITLE3=Ti-Pi-Tin
TTITLE4=8,9 and 10
TTITLE5=Dancing on the Beach
TTITLE6=Oh! Lady Be Good
TTITLE7=Ferdinand The Bull
TTITLE8=Tutti Frutti
TTITLE9=Look a There
TTITLE10=Humpty Dumpty
TTITLE11=Jump Session
TTITLE12=Laughin' in Rhythm
TTITLE13=Vol Vist Du Gailey Star
TTITLE14=Dopey Joe
TTITLE15=Sweet Safronia
TTITLE16=It's Getting kinda Chilly
TTITLE17=Buck Dance Rhythm
TTITLE18=That's a bringer
EXTD=
EXTT0=
EXTT1=
EXTT2=
EXTT3=
EXTT4=
EXTT5=
EXTT6=
EXTT7=
EXTT8=
EXTT9=
EXTT10=
EXTT11=
EXTT12=
EXTT13=
EXTT14=
EXTT15=
EXTT16=
EXTT17=
EXTT18=
PLAYORDER=
